<svg class="Icon helperbird-font-opendyslexic-regular" xmlns="http://www.w3.org/2000/svg" viewBox="0 0 512 512" style="height: 512px; width: 512px;"><defs class="helperbird-font-opendyslexic-regular"><linearGradient id="sbed-lucifer-cannon-gradient-0" class="helperbird-font-opendyslexic-regular"><stop offset="0%" stop-color="#000" stop-opacity="1" class="helperbird-font-opendyslexic-regular"></stop><stop offset="100%" stop-color="#000" stop-opacity="1" class="helperbird-font-opendyslexic-regular"></stop></linearGradient></defs><g class="helperbird-font-opendyslexic-regular" transform="translate(4,25)" style=""><path d="M376 76c30 60-120 30-210 75 150 0 270 15 270 105S316 361 166 361c90 45 240 15 210 75 90-15 120-120 120-180S466 91 376 76zm-95.625 105.938C216.005 182.577 127.562 203.5 16 256c255 120 390 75 390 0 0-42.188-42.865-74.886-125.625-74.063z" fill="#ed9c2f" fill-opacity="1" transform="translate(0, 0) scale(1, 1) rotate(-360, 256, 256) skewX(0) skewY(0)" class="helperbird-font-opendyslexic-regular"></path></g></svg>